#!OML:ASF H:\Terrain\Patient Classification 1\Walking\liu\liu.ASF
:FULLY-SPECIFIED
:DEGREES
194
root 9.42812 16.7544 8.03646 9.61604 7.23066 6.37053
lowerback -4.50398 -4.36931 -8.56992
upperback 0.147178 -5.41752 1.62463
thorax 3.63791 -2.87238 6.0441
lowerneck -23.4417 -2.91516 -10.0211
upperneck 22.0365 -3.25446 10.2745
head 11.3922 -1.01501 4.96611
rclavicle -4.49253e-014 1.03368e-014
rhumerus -54.1603 3.94469 -77.8526
rradius 26.0937
rwrist -14.0901
rhand -33.8006 -19.0953
rfingers 7.12502
rthumb -6.98709 -48.96
lclavicle -4.49253e-014 1.03368e-014
lhumerus -10.9351 -26.6038 85.1657
lradius 41.8399
lwrist 13.4092
lhand -19.6802 -28.6697
lfingers 7.12502
lthumb 6.64856 1.20589
rfemur -47.6091 16.0259 2.42047
rtibia 26.7535
rfoot -27.8807 -15.17
rtoes -16.8686
lfemur 12.1222 2.11388 -30.1832
ltibia 6.36111e-015
lfoot -12.71 -4.93168
ltoes 0.822437
195
root 9.42045 16.7151 8.26862 9.75393 7.1374 6.3313
lowerback -4.7877 -4.36318 -8.6644
upperback 0.231662 -5.37707 1.6677
thorax 3.89317 -2.86765 6.12242
lowerneck -23.655 -3.0219 -10.137
upperneck 22.0613 -3.37777 10.3974
head 11.4623 -1.06051 5.01621
rclavicle -1.64991e-014 -1.27222e-014
rhumerus -54.3592 2.73205 -76.4015
rradius 25.8458
rwrist -12.4065
rhand -33.6556 -21.9099
rfingers 7.12502
rthumb -6.84709 -51.7792
lclavicle -1.64991e-014 -1.27222e-014
lhumerus -10.0675 -25.8267 84.9787
lradius 41.8198
lwrist 12.833
lhand -17.8567 -28.5872
lfingers 7.12502
lthumb 8.40865 1.22542
rfemur -48.3283 17.357 1.44138
rtibia 26.1221
rfoot -29.2475 -15.8634
rtoes -15.4605
lfemur 12.8429 2.50184 -29.7874
ltibia -2.54444e-014
lfoot -12.4508 -6.00053
ltoes 3.64631
196
root 9.40961 16.6732 8.49892 9.89773 6.95077 6.57731
lowerback -4.8142 -4.34012 -9.11977
upperback 0.121209 -5.32087 1.66097
thorax 3.82439 -2.84176 6.37982
lowerneck -23.6338 -3.02824 -10.2475
upperneck 22.1846 -3.39617 10.5398
head 11.5122 -1.06172 5.09215
rclavicle 2.89232e-014 0
rhumerus -55.0881 2.49433 -75.8393
rradius 25.3839
rwrist -10.9938
rhand -34.8193 -21.0153
rfingers 7.12502
rthumb -7.97039 -50.8451
lclavicle 2.89232e-014 0
lhumerus -9.58984 -25.5697 84.9902
lradius 41.6715
lwrist 13.2422
lhand -16.4903 -29.2672
lfingers 7.12502
lthumb 9.7271 0.488215
rfemur -48.6778 17.4085 1.2209
rtibia 25.736
rfoot -29.8101 -15.6284
rtoes -16.6481
lfemur 13.5507 2.93591 -29.7042
ltibia -2.22639e-014
lfoot -12.1034 -6.8414
ltoes 4.71896
197
root 9.40863 16.6298 8.7296 10.0274 6.76422 7.07502
lowerback -4.74322 -4.37595 -9.61984
upperback -0.0154539 -5.34659 1.50443
thorax 3.67665 -2.84984 6.50227
lowerneck -23.4386 -2.90923 -10.1148
upperneck 22.1649 -3.27311 10.4624
head 11.4478 -1.00882 5.05684
rclavicle -1.98785e-014 1.19271e-014
rhumerus -55.6196 2.23566 -75.2025
rradius 25.5514
rwrist -11.4614
rhand -33.1532 -22.452
rfingers 7.12502
rthumb -6.36208 -52.3364
lclavicle -1.98785e-014 1.19271e-014
lhumerus -9.32554 -25.102 84.8451
lradius 41.6363
lwrist 13.3414
lhand -16.1407 -30.1461
lfingers 7.12502
lthumb 10.0644 -0.406783
rfemur -48.5565 15.4977 2.26745
rtibia 25.719
rfoot -28.6387 -14.1095
rtoes -16.2391
lfemur 14.2837 3.3374 -29.9348
ltibia 1.90833e-014
lfoot -11.5316 -7.58154
ltoes 5.30184
198
root 9.40537 16.5902 8.96456 10.0657 6.48806 7.15852
lowerback -4.76109 -4.33737 -9.7298
upperback -0.022837 -5.28614 1.4707
thorax 3.67452 -2.82082 6.53418
lowerneck -23.2599 -2.84679 -10.309
upperneck 21.8806 -3.19431 10.7654
head 11.3064 -0.954612 5.20627
rclavicle 1.44119e-014 -1.98785e-014
rhumerus -55.7116 1.41807 -74.2539
rradius 24.3643
rwrist -10.8648
rhand -32.8708 -17.9248
rfingers 7.12502
rthumb -6.08951 -47.8173
lclavicle 1.44119e-014 -1.98785e-014
lhumerus -9.01561 -24.529 84.6826
lradius 41.7269
lwrist 12.9983
lhand -16.045 -29.811
lfingers 7.12502
lthumb 10.1568 -0.0761553
rfemur -48.3357 12.9421 4.49422
rtibia 25.9924
rfoot -26.6501 -12.3118
rtoes -17.6606
lfemur 15.07 3.89215 -29.7273
ltibia 0
lfoot -10.8994 -8.25367
ltoes 4.64725
199
root 9.40211 16.5503 9.20696 9.93962 6.19525 7.1224
lowerback -4.74751 -4.31939 -9.78228
upperback 0.0395995 -5.25926 1.50049
thorax 3.73564 -2.81419 6.59659
lowerneck -23.2457 -2.70229 -10.3416
upperneck 21.8241 -2.99857 10.8512
head 11.2593 -0.858031 5.27416
rclavicle -1.80894e-014 4.77083e-015
rhumerus -55.7907 0.872808 -73.3678
rradius 23.6099
rwrist -10.099
rhand -33.6986 -18.1093
rfingers 7.12502
rthumb -6.88863 -47.9773
lclavicle -1.80894e-014 4.77083e-015
lhumerus -8.79538 -24.055 84.5248
lradius 41.8668
lwrist 13.4095
lhand -16.6943 -28.9909
lfingers 7.12502
lthumb 9.53032 0.773603
rfemur -47.9984 10.5417 6.88195
rtibia 26.5014
rfoot -24.4608 -10.6104
rtoes -19.3824
lfemur 16.1127 4.49846 -29.3779
ltibia -2.8625e-014
lfoot -10.2352 -8.84711
ltoes 2.39851
200
root 9.39521 16.5042 9.44948 9.87324 6.02878 7.09357
lowerback -4.73841 -4.40058 -9.82811
upperback 0.0767728 -5.36538 1.52479
thorax 3.79693 -2.87255 6.63457
lowerneck -23.5522 -2.57184 -10.1992
upperneck 22.102 -2.8249 10.7391
head 11.3951 -0.77575 5.25064
rclavicle 2.22639e-014 1.27222e-014
rhumerus -55.8919 0.699684 -72.6668
rradius 23.3771
rwrist -8.55561
rhand -32.6868 -21.2994
rfingers 7.12502
rthumb -5.91185 -51.1969
lclavicle 2.22639e-014 1.27222e-014
lhumerus -8.75876 -22.6033 84.443
lradius 42.1684
lwrist 12.8455
lhand -17.2062 -29.3424
lfingers 7.12502
lthumb 9.03636 0.444031
rfemur -47.7717 8.25766 9.13797
rtibia 27.3012
rfoot -22.5148 -8.84342
rtoes -20.0296
lfemur 17.1672 4.95763 -28.9775
ltibia 3.49861e-014
lfoot -9.58343 -9.4288
ltoes -1.56539
201
root 9.38893 16.4562 9.69567 9.84115 5.85775 7.18319
lowerback -4.68524 -4.40603 -9.87586
upperback 0.0374726 -5.37401 1.43757
thorax 3.72283 -2.87139 6.57338
lowerneck -23.6514 -2.57107 -10.2737
upperneck 22.2379 -2.86484 10.9854
head 11.476 -0.767868 5.35995
rclavicle 9.69075e-014 -1.66979e-014
rhumerus -56.0199 -0.291078 -71.4828
rradius 22.748
rwrist -6.41398
rhand -30.0097 -22.2205
rfingers 7.12502
rthumb -3.32681 -52.1743
lclavicle 9.69075e-014 -1.66979e-014
lhumerus -8.8814 -21.417 84.4608
lradius 42.3829
lwrist 12.0298
lhand -16.2908 -30.8514
lfingers 7.12502
lthumb 9.91958 -1.10507
rfemur -47.5566 6.22519 11.0167
rtibia 28.3256
rfoot -21.1714 -7.11221
rtoes -20.8626
lfemur 18.1611 5.3892 -28.6784
ltibia 5.08889e-014
lfoot -8.67257 -10.1854
ltoes -3.18694
202
root 9.38771 16.4035 9.95192 9.59497 5.70267 7.42994
lowerback -4.59438 -4.36919 -9.99428
upperback 0.185939 -5.31469 1.23938
thorax 3.80887 -2.85081 6.43639
lowerneck -23.6116 -2.5156 -10.1227
upperneck 22.0032 -2.84738 11.0499
head 11.3768 -0.738036 5.35058
rclavicle -2.33572e-014 -2.14687e-014
rhumerus -55.8529 -2.05668 -69.855
rradius 21.7838
rwrist -4.10336
rhand -29.2069 -22.5219
rfingers 7.12502
rthumb -2.55148 -52.4864
lclavicle -2.33572e-014 -2.14687e-014
lhumerus -8.89642 -21.0106 84.3569
lradius 42.5083
lwrist 12.1588
lhand -15.5106 -31.2985
lfingers 7.12502
lthumb 10.6723 -1.58952
rfemur -47.127 4.79921 12.1678
rtibia 29.4862
rfoot -19.9758 -5.47036
rtoes -21.521
lfemur 19.3833 5.81402 -28.5587
ltibia -9.54166e-015
lfoot -7.50095 -10.7898
ltoes -2.28438
203
root 9.38621 16.3551 10.2106 9.44379 5.60094 7.39674
lowerback -4.6864 -4.428 -9.92988
upperback 0.383923 -5.37801 1.23082
thorax 4.07546 -2.90065 6.36813
lowerneck -23.8889 -2.42221 -10.06
upperneck 21.9143 -2.68553 10.9785
head 11.3729 -0.661238 5.33846
rclavicle -9.51185e-014 3.33958e-014
rhumerus -55.4801 -3.13341 -68.6438
rradius 21.0242
rwrist -2.28233
rhand -29.5389 -23.2825
rfingers 7.12502
rthumb -2.87218 -53.2429
lclavicle -9.51185e-014 3.33958e-014
lhumerus -8.70765 -21.0712 84.0946
lradius 42.3878
lwrist 12.8116
lhand -15.9039 -31.0751
lfingers 7.12502
lthumb 10.2929 -1.34693
rfemur -46.9442 3.90258 13.2164
rtibia 30.8201
rfoot -17.8365 -3.90401
rtoes -20.5873
lfemur 20.4582 6.2044 -28.1453
ltibia -5.725e-014
lfoot -6.15652 -10.9953
ltoes -2.43589
204
root 9.38424 16.3309 10.4735 9.43867 5.57756 7.29754
lowerback -4.73034 -4.51817 -9.81419
upperback 0.26344 -5.50785 1.2978
thorax 3.99256 -2.95534 6.36112
lowerneck -23.8435 -2.34177 -10.2365
upperneck 22.0839 -2.53439 11.0236
head 11.4113 -0.604858 5.41801
rclavicle 2.08724e-015 2.06736e-014
rhumerus -55.7491 -3.11081 -68.2501
rradius 20.791
rwrist -1.87996
rhand -29.4851 -23.3202
rfingers 7.12502
rthumb -2.82019 -53.2813
lclavicle 2.08724e-015 2.06736e-014
lhumerus -8.9669 -21.5618 83.9671
lradius 42.3025
lwrist 13.8796
lhand -15.9894 -31.1302
lfingers 7.12502
lthumb 10.2104 -1.39799
rfemur -47.0327 3.29932 14.0635
rtibia 32.2972
rfoot -14.6556 -3.01723
rtoes -21.415
lfemur 21.3066 6.49647 -27.6284
ltibia 2.8625e-014
lfoot -4.52108 -11.1831
ltoes -4.61046
205
root 9.38118 16.3323 10.7444 9.24086 5.63833 7.4139
lowerback -4.47489 -4.56162 -9.85553
upperback 0.0803323 -5.59806 1.28444
thorax 3.67444 -2.97967 6.38751
lowerneck -23.4836 -2.24293 -10.3221
upperneck 22.099 -2.37883 10.9513
head 11.3277 -0.559579 5.42488
rclavicle -1.3418e-014 1.43125e-014
rhumerus -56.0791 -3.50575 -67.4584
rradius 20.3315
rwrist -1.46823
rhand -29.2124 -22.5671
rfingers 7.12502
rthumb -2.55682 -52.5316
lclavicle -1.3418e-014 1.43125e-014
lhumerus -9.86202 -20.7147 84.3955
lradius 42.7281
lwrist 13.5921
lhand -15.501 -31.3672
lfingers 7.12502
lthumb 10.6815 -1.65867
rfemur -47.0301 2.99695 14.3011
rtibia 33.7238
rfoot -11.6434 -2.50651
rtoes -24.9517
lfemur 22.2975 6.69596 -27.2815
ltibia -6.99722e-014
lfoot -2.49253 -11.4678
ltoes -7.0954
206
root 9.37394 16.339 11.0166 9.05386 5.67172 7.47144
lowerback -4.32986 -4.57788 -9.85038
upperback -0.0153152 -5.63887 1.26136
thorax 3.4964 -2.98791 6.37141
lowerneck -22.871 -2.16319 -10.574
upperneck 21.792 -2.26909 11.1539
head 11.0878 -0.518106 5.53986
rclavicle -5.32743e-014 -2.22639e-014
rhumerus -56.1681 -4.67463 -66.0223
rradius 19.4121
rwrist 0.405002
rhand -29.6172 -22.1462
rfingers 7.12502
rthumb -2.94781 -52.1056
lclavicle -5.32743e-014 -2.22639e-014
lhumerus -10.7916 -19.617 84.9068
lradius 43.0082
lwrist 12.8165
lhand -15.5426 -32.145
lfingers 7.12502
lthumb 10.6414 -2.43444
rfemur -47.1781 2.98687 14.3268
rtibia 35.3115
rfoot -9.48217 -1.8415
rtoes -22.2186
lfemur 23.2302 6.91973 -26.8667
ltibia -5.40694e-014
lfoot 0.816675 -11.5327
ltoes -4.77885
207
root 9.35723 16.3352 11.2862 8.93529 5.60755 6.78832
lowerback -4.48147 -4.53955 -9.20151
upperback -0.0155761 -5.61046 1.39445
thorax 3.52577 -2.96567 6.14165
lowerneck -22.4376 -2.13346 -10.7038
upperneck 21.5918 -2.27143 11.3795
head 10.9362 -0.511262 5.63221
rclavicle -4.42296e-014 -7.15625e-015
rhumerus -56.3146 -5.91446 -64.7942
rradius 18.8744
rwrist 2.5725
rhand -30.1682 -22.3955
rfingers 7.12502
rthumb -3.47984 -52.3469
lclavicle -4.42296e-014 -7.15625e-015
lhumerus -11.3053 -19.6656 85.023
lradius 42.9038
lwrist 13.2326
lhand -15.6227 -32.142
lfingers 7.12502
lthumb 10.5642 -2.42748
rfemur -47.2132 3.4732 15.0872
rtibia 36.9066
rfoot -7.92948 -1.77042
rtoes -19.9077
lfemur 24.1214 7.30039 -25.6534
ltibia -1.90833e-014
lfoot 4.50135 -10.874
ltoes -1.98827
